<?xml version="1.0" encoding="UTF-8" standalone="no"?>
<svg
   version="1.1"
   id="Layer_1"
   x="0px"
   y="0px"
   width="100%"
   viewBox="0 0 2400 3192"
   enable-background="new 0 0 2400 3192"
   xml:space="preserve"
   sodipodi:docname="42683_adobe.svg"
   inkscape:version="1.4.2 (f4327f4, 2025-05-13)"
   xmlns:inkscape="http://www.inkscape.org/namespaces/inkscape"
   xmlns:sodipodi="http://sodipodi.sourceforge.net/DTD/sodipodi-0.dtd"
   xmlns="http://www.w3.org/2000/svg"
   xmlns:svg="http://www.w3.org/2000/svg"><defs
   id="defs26" /><sodipodi:namedview
   id="namedview26"
   pagecolor="#ffffff"
   bordercolor="#000000"
   borderopacity="0.25"
   inkscape:showpageshadow="2"
   inkscape:pageopacity="0.0"
   inkscape:pagecheckerboard="0"
   inkscape:deskcolor="#d1d1d1"
   inkscape:zoom="0.11513158"
   inkscape:cx="-1216"
   inkscape:cy="1602.5143"
   inkscape:window-width="1920"
   inkscape:window-height="974"
   inkscape:window-x="-11"
   inkscape:window-y="-11"
   inkscape:window-maximized="1"
   inkscape:current-layer="Layer_1" />


<path
   fill="#f2f2f2"
   opacity="1"
   stroke="none"
   d="m 1013.0627,2 c 1.1616,4.1781079 -0.6195,6.1704022 -4.9376,6.0875862 -7.6637,-0.1469852 -15.33769,-0.2163738 -22.99796,0.0093 -19.16144,0.5645055 -38.38611,0.5021725 -57.46216,2.1481978 -45.9065,3.961148 -91.85742,0.716699 -137.7699,1.846221 -29.58453,0.727828 -59.27167,0.05172 -88.7326,2.355902 -39.95606,3.125029 -79.8689,0.622419 -119.78254,1.673109 -29.58325,0.778754 -59.17382,1.272751 -88.75576,2.092691 -15.92545,0.441415 -31.83954,1.302008 -47.75882,1.971645 -0.33283,0.014 -0.69886,-0.08569 -0.9953,0.02096 -18.18461,6.543047 -36.79587,0.664512 -55.18232,1.850895 -12.51962,0.807827 -12.681,0.288164 -12.68179,13.296971 -0.009,151.494032 -0.0906,302.988152 0.0882,454.481962 0.0259,21.93294 -5.07837,42.49658 -13.56381,62.36527 -17.14023,40.13401 -30.95459,81.35633 -40.83799,123.93061 -1.88455,8.11799 -5.29477,15.89442 -6.92157,24.04811 -1.62747,8.15702 -2.64856,16.58841 -2.65854,24.90114 -0.1586,131.96791 -0.21154,263.93631 0.0315,395.90393 0.0265,14.3739 2.87659,28.5838 6.83505,42.4944 5.13205,18.0345 9.53561,36.2935 15.11939,54.1799 5.27459,16.8961 11.96316,33.3366 17.49917,50.1556 6.69913,20.3528 17.5477,39.2491 21.10428,60.6724 1.47449,8.8815 3.15692,17.8859 3.16241,26.8354 0.16681,271.6792 0.13596,543.3584 0.13627,815.0378 0,3.0299 -0.0314,6.0602 0.0149,9.0896 0.0819,5.3637 1.93451,9.5311 6.70221,12.6379 16.72787,10.899 33.16446,22.2562 49.95392,33.0556 4.40115,2.8309 6.79812,6.2852 7.23761,11.2536 0.26599,3.007 0.0892,6.0554 0.0892,9.085 0.002,150.8208 0.10443,301.6416 -0.22443,452.4617 -0.0224,10.2692 2.82926,16.382 12.35468,20.0535 11.78973,4.5441 23.26846,9.9133 34.86914,14.9547 3.3594,1.4597 6.66376,3.0484 10.01602,4.5254 4.84729,2.1348 7.00467,5.9434 6.97253,11.1732 -0.0145,2.3565 0.0132,4.713 0.0132,7.0695 8.2e-4,125.5717 7.3e-4,251.1436 7e-4,376.7153 0,1.3465 0.0174,2.6935 -0.003,4.0398 -0.18814,12.2333 -4.2088,16.4758 -16.10861,16.587 -12.66549,0.1189 -25.33319,0.071 -37.99945,0.01 -5.05691,-0.026 -9.64804,-0.1578 -13.06439,5.1849 -1.30817,2.0456 -5.79672,2.7126 -8.86643,2.7912 -11.99227,0.3063 -23.9974,0.1993 -35.99649,0.098 -7.17794,-0.061 -13.49878,1.4597 -19.50457,6.0714 -3.37314,2.5897 -8.51239,3.6929 -12.92215,3.8805 -11.97861,0.5102 -23.99381,0.2789 -35.99198,0.1312 -5.87372,-0.073 -11.00549,0.5203 -14.98883,5.9343 -2.95849,4.0213 -7.96206,4.3017 -12.79883,4.2516 -12.332,-0.1277 -24.66644,-0.097 -36.99932,-0.024 -9.55007,0.056 -9.59835,0.1665 -13.69916,11.2263 -30.99028,0.8248 -61.02226,0.84 -91.63816,0.2961 -6.19976,-0.8465 -11.81561,-1.134 -17.42759,-2.3701 0.003,-1045.1648 0.008,-2089.381 -0.044,-3133.597042 C 135.9458,38.556376 137.88614,19.976218 132,2 425.37512,2 718.75024,2 1013.0627,2 Z"
   id="path3"
   style="stroke-width:1.00497" /><path
   fill="#f2f2f2"
   opacity="1"
   stroke="none"
   d="m 13996.2,-210.03161 c 18.265,4.51482 -9.741,6.66765 -77.639,6.57817 -120.504,-0.15883 -241.17,-0.23381 -361.619,0.01 -301.295,0.60999 -603.583,0.54263 -903.535,2.32131 -721.833,4.28036 -1444.365,0.77445 -2166.293,1.99499 -465.187,0.78649 -931.9873,0.0559 -1395.2308,2.54576 -628.2687,3.37687 -1255.8579,0.67258 -1883.4597,1.80794 -465.167,0.84152 -930.4487,1.37532 -1395.5952,2.26134 -250.4116,0.47699 -500.6447,1.40693 -750.9594,2.13053 -5.2334,0.0152 -10.9887,-0.0925 -15.6498,0.0226 -285.9347,7.07033 -578.578,0.71807 -867.6865,2.00006 -196.8584,0.87292 -199.3961,0.31139 -199.4083,14.36853 -0.14,163.702444 -1.4249,327.40499 1.3867,491.1072 0.4072,23.70045 -79.8521,45.92124 -213.2774,67.39109 -269.5127,43.36828 -486.7297,87.91258 -642.1362,133.91779 -29.6327,8.77219 -83.255,17.17529 -108.8348,25.98607 -25.5902,8.81435 -41.6458,17.92521 -41.8027,26.90783 -2.494,142.60279 -3.3263,285.20609 0.4954,427.80866 0.4164,15.53214 45.2315,30.88724 107.4742,45.91874 80.6963,19.4879 149.9378,39.2184 237.7371,58.5462 82.9377,18.2577 188.1086,36.023 275.1569,54.1975 105.3369,21.9929 275.9199,42.412 331.8434,65.5617 23.185,9.5973 49.6395,19.3273 49.7259,28.998 2.6229,293.573 2.1379,587.146 2.1427,880.7191 0,3.2741 -0.4939,6.5486 0.2353,9.8222 1.2878,5.7958 30.4182,10.2991 105.3858,13.6562 263.0288,11.7774 521.4775,24.0499 785.475,35.7195 69.2037,3.0591 106.8934,6.7917 113.804,12.1605 4.1824,3.2493 1.4027,6.5433 1.4027,9.8172 0.033,162.9749 1.642,325.9499 -3.5288,488.924 -0.3524,11.0969 44.4871,17.7023 194.2649,21.6696 185.3814,4.9103 365.8729,10.7122 548.2819,16.1599 52.8234,1.5773 104.7811,3.294 157.4918,4.89 76.219,2.3069 110.1416,6.4223 109.6361,12.0737 -0.2294,2.5463 0.2085,5.0928 0.2085,7.6391 0,135.6911 0,271.3825 0,407.0736 0,1.455 0.2741,2.9107 -0.048,4.3655 -2.9583,13.219 -66.1794,17.8034 -253.2918,17.9236 -199.1522,0.1284 -398.3389,0.077 -597.5032,0.011 -79.5146,-0.028 -151.7055,-0.1705 -205.4243,5.6028 -20.5695,2.2104 -91.1476,2.9312 -139.4156,3.0162 -188.5665,0.3309 -377.3349,0.2152 -566.0087,0.1058 -112.8658,-0.065 -212.2547,1.5774 -306.6895,6.5606 -53.0394,2.7985 -133.8489,3.9905 -203.188,4.1933 -188.3514,0.5513 -377.2784,0.3013 -565.9375,0.1418 -92.3586,-0.079 -173.0505,0.5621 -235.6843,6.4125 -46.5193,4.3454 -125.1954,4.6484 -201.2487,4.5942 -193.9084,-0.1379 -387.8551,-0.1047 -581.7772,-0.026 -150.1652,0.061 -150.9244,0.1799 -215.4055,12.1309 -487.291,0.8913 -959.51363,0.9078 -1440.91781,0.3201 -97.48501,-0.9148 -185.78858,-1.2254 -274.03133,-2.5611 0.0471,-1129.3913 0.12571,-2257.75765 -0.69186,-3386.12369 -0.0149,-19.87159 30.49055,-39.94906 -62.06307,-59.37392 4613.02837,0 9226.05687,0 13853.82367,0 z"
   id="path3-9"
   style="stroke-width:4.14253" />
<path
   fill="#F2F2F2"
   opacity="1.000000"
   stroke="none"
   d=" M67.999985,3194.000000   C46.005562,3194.000000 24.011126,3194.000000 2.087992,3194.000000   C2.087992,2130.000000 2.087992,1066.000000 2.087992,2.000000   C29.502317,2.000000 56.828651,2.000000 85.095421,2.861954   C86.087883,7.172584 86.139908,10.621260 86.152367,14.733978   C86.161491,16.285221 86.210167,17.172422 86.203857,18.991484   C86.118973,22.922031 86.062920,25.920719 86.062874,28.919407   C86.046623,1072.614868 86.034195,2116.310303 85.178619,3160.038574   C75.266098,3161.087158 66.196663,3162.103027 56.138962,3163.229492   C56.595131,3165.994141 56.541019,3168.644287 57.488094,3170.867920   C60.805660,3178.658203 64.468353,3186.301025 67.999985,3194.000000  M15.968045,3031.889648   C15.980318,3063.805420 15.932014,3095.721680 16.091759,3127.636719   C16.109121,3131.105469 17.328102,3134.568115 18.019356,3139.524902   C21.270773,3150.728760 24.167065,3153.377930 33.173054,3152.881592   C33.385651,3151.064941 33.905956,3149.134033 33.780472,3147.245850   C33.298035,3139.987305 32.026539,3132.738281 32.082470,3125.493408   C33.203533,2980.287109 29.469198,2835.059082 33.995323,2689.868896   C33.996067,1805.807861 33.996845,921.746948 33.996910,37.685970   C33.996910,35.020153 34.365555,32.287521 33.908928,29.701412   C32.681084,22.747616 31.827208,15.536826 25.309341,9.289974   C23.878042,12.197477 22.938032,14.106987 20.519125,16.318781   C14.528289,21.794950 16.025425,29.085804 16.024469,35.867363   C15.969460,426.056580 15.973538,816.245850 15.968764,1206.435059   C15.963775,1614.284424 15.955786,2022.133789 14.394922,2430.402100   C13.656819,2431.418945 12.284397,2432.429688 12.274709,2433.453613   C12.098938,2452.028076 11.989647,2470.605225 12.210670,2489.177734   C12.230042,2490.805420 14.645729,2492.404785 15.964134,2495.762695   C15.959125,2499.835449 15.954114,2503.908203 14.646774,2508.217773   C10.770479,2511.119629 11.728830,2512.935547 15.965332,2515.764160   C15.961008,2519.836670 15.956684,2523.909180 14.648844,2528.217041   C10.770954,2531.119873 11.726528,2532.936523 15.967514,2535.890625   C15.959323,2608.587158 15.951132,2681.283936 14.390022,2754.401123   C10.294706,2757.362793 12.089531,2761.728516 12.084019,2765.432129   C11.969236,2842.556152 12.025591,2919.680420 11.932000,2996.804688   C11.926036,3001.720215 10.747941,3006.624268 10.520354,3011.552490   C10.210302,3018.266602 9.689273,3025.177490 15.968045,3031.889648  z"
   id="path4" />
<path
   fill="#E1E1E1"
   opacity="1.000000"
   stroke="none"
   d=" M68.937302,3194.000000   C64.468353,3186.301025 60.805660,3178.658203 57.488094,3170.867920   C56.541019,3168.644287 56.595131,3165.994141 56.138962,3163.229492   C66.196663,3162.103027 75.266098,3161.087158 85.939308,3160.378906   C90.772957,3161.126953 93.996780,3161.885498 97.233864,3161.947021   C106.149109,3162.116943 115.069901,3161.995117 124.653717,3161.612793   C126.185059,3158.190430 128.070084,3155.022705 127.725258,3152.119873   C126.712524,3143.594971 124.633453,3135.203125 123.312889,3126.706299   C121.994095,3118.220703 120.052544,3109.657715 120.164505,3101.152100   C121.023178,3035.919434 119.730515,2970.700928 121.461029,2905.434326   C123.677208,2821.850342 121.533646,2738.160156 122.132866,2654.521973   C122.733932,2570.626709 122.349083,2486.735840 123.397156,2402.827881   C125.444725,2238.900879 123.519882,2074.928711 124.135071,1910.978271   C124.751228,1746.772827 122.643806,1582.572266 125.601852,1418.354492   C127.660080,1304.091187 125.998413,1189.761108 125.998466,1075.460815   C125.998512,960.827271 126.485634,846.191162 125.861214,731.560974   C125.239029,617.341064 126.708595,503.133301 124.511215,388.890869   C122.230247,270.302368 124.003090,151.635910 124.001442,33.003536   C124.001404,30.337738 124.176262,27.654097 123.933662,25.009594   C123.290070,17.993996 115.768265,13.792463 107.332733,15.982082   C105.778236,15.979487 104.889946,15.976887 103.422379,15.419159   C97.292709,14.599334 91.742317,14.334635 86.191925,14.069935   C86.139908,10.621260 86.087883,7.172584 86.017929,2.861954   C97.376083,2.000000 108.752159,2.000000 121.145836,2.729263   C123.380203,6.529391 123.752991,10.592841 125.974640,12.481898   C132.221741,17.793774 132.042206,24.443707 132.040802,31.544157   C131.980774,335.505585 131.989777,639.467041 131.990204,943.428467   C131.990372,1069.079224 131.990417,1194.729858 131.990189,1320.380615   C131.989944,1445.698120 132.470993,1571.017822 131.853439,1696.332397   C131.234619,1821.903320 132.909393,1947.463501 130.413071,2073.054199   C127.427681,2223.250732 130.468597,2373.504639 128.539490,2523.754883   C126.267578,2700.703369 128.211441,2877.703613 127.816246,3054.680176   C127.741943,3087.958740 129.303299,3121.067871 131.975967,3154.183105   C132.208542,3157.064941 132.526291,3159.525391 135.986908,3160.019287   C141.602753,3160.303955 147.218597,3160.588623 153.495605,3162.121338   C154.749191,3164.522217 155.145767,3165.842529 155.965073,3166.801758   C162.855957,3174.869141 172.205719,3178.916016 181.976700,3181.929199   C191.674179,3184.919434 201.602295,3187.156982 211.334030,3190.045654   C213.123016,3190.576660 214.456390,3192.642578 216.000031,3194.000000   C167.291550,3194.000000 118.583092,3194.000000 68.937302,3194.000000  z"
   id="path5" />
<path
   fill="#ECECEC"
   opacity="1.000000"
   stroke="none"
   d=" M135.990768,3159.080078   C132.526291,3159.525391 132.208542,3157.064941 131.975967,3154.183105   C129.303299,3121.067871 127.741943,3087.958740 127.816246,3054.680176   C128.211441,2877.703613 126.267578,2700.703369 128.539490,2523.754883   C130.468597,2373.504639 127.427681,2223.250732 130.413071,2073.054199   C132.909393,1947.463501 131.234619,1821.903320 131.853439,1696.332397   C132.470993,1571.017822 131.989944,1445.698120 131.990189,1320.380615   C131.990417,1194.729858 131.990372,1069.079224 131.990204,943.428467   C131.989777,639.467041 131.980774,335.505585 132.040802,31.544157   C132.042206,24.443707 132.221741,17.793774 125.974640,12.481898   C123.752991,10.592841 123.380203,6.529391 122.081711,2.729263   C124.777779,2.000000 127.555565,2.000000 131.166672,2.000000   C137.886139,19.798862 135.945801,38.195705 135.946732,56.399593   C135.998947,1090.313232 135.993988,2124.227051 135.990768,3159.080078  z"
   id="path6" />

<path
   fill="#DADADA"
   opacity="1.000000"
   stroke="none"
   d=" M2402.000000,1397.062744   C2397.815674,1397.408936 2398.098389,1394.245483 2397.988037,1391.199585   C2397.351318,1373.625854 2397.647217,1355.942749 2395.674805,1338.517822   C2394.194092,1325.437012 2395.880615,1311.920654 2390.896973,1299.193481   C2389.742432,1296.245239 2390.050781,1292.639526 2390.050537,1289.336426   C2390.023926,1065.501099 2390.034668,841.665710 2390.833984,617.116943   C2392.407471,618.083374 2393.799316,619.735352 2393.877441,621.447266   C2394.705078,639.569336 2395.306396,657.701660 2396.004883,675.829773   C2396.652344,692.635193 2397.373779,709.437927 2397.985840,726.244568   C2398.091309,729.145508 2398.566406,731.538513 2402.000000,732.000000   C2402.000000,953.375122 2402.000000,1174.750244 2402.000000,1397.062744  z"
   id="path8" />
<path
   fill="#E1E1E1"
   opacity="1.000000"
   stroke="none"
   d=" M2402.000000,731.062683   C2398.566406,731.538513 2398.091309,729.145508 2397.985840,726.244568   C2397.373779,709.437927 2396.652344,692.635193 2396.004883,675.829773   C2395.306396,657.701660 2394.705078,639.569336 2393.877441,621.447266   C2393.799316,619.735352 2392.407471,618.083374 2390.856934,616.176758   C2390.085938,477.230865 2390.083984,338.511688 2390.796875,199.015442   C2393.112793,200.890381 2394.520508,203.687927 2396.373291,206.150482   C2397.988037,208.296585 2400.104980,210.064789 2402.000000,212.000000   C2402.000000,384.708466 2402.000000,557.416931 2402.000000,731.062683  z"
   id="path9" />
<path
   fill="#E1E1E1"
   opacity="1.000000"
   stroke="none"
   d=" M2345.983398,17.981956   C2343.146240,17.330072 2340.308838,16.678173 2336.132324,15.441507   C2325.413086,14.587649 2316.031250,14.132366 2306.655518,14.231913   C2305.084473,14.248594 2303.539062,16.669941 2301.981689,17.980179   C2298.499023,17.332035 2295.016113,16.683884 2290.162354,15.447096   C2270.769287,14.588108 2252.747314,14.218036 2234.725342,14.221460   C2233.146484,14.221760 2231.568115,16.672689 2229.989502,17.985371   C2217.284668,17.326801 2204.580078,16.668209 2190.184082,15.675211   C2185.236816,14.894487 2181.958984,13.955582 2178.728027,14.095318   C2169.471191,14.495664 2160.236328,15.853849 2150.987549,15.907863   C2113.350586,16.127661 2075.711182,15.921682 2038.073608,16.078863   C2031.818481,16.104988 2025.575684,17.501314 2019.312866,17.646103   C2011.697876,17.822153 2004.068115,17.313524 1996.443726,17.155401   C1988.527588,16.991230 1980.609131,16.740229 1972.693604,16.799194   C1960.233887,16.892010 1947.775269,17.407934 1935.317505,17.359713   C1928.385376,17.332880 1921.446045,16.036610 1914.528076,16.180758   C1902.608887,16.429104 1890.706177,17.858826 1878.792847,17.909315   C1829.164551,18.119650 1779.534790,17.986382 1729.905640,18.031134   C1726.265747,18.034416 1722.583740,18.177643 1718.995483,18.734304   C1712.331299,19.768183 1706.075195,18.656771 1699.995605,15.989531   C1701.130615,15.370450 1702.204102,14.520329 1703.417847,14.196291   C1704.670166,13.861939 1706.058960,14.015646 1707.388550,13.996466   C1753.901245,13.325477 1800.412476,12.493496 1846.927490,12.106926   C1858.822144,12.008073 1870.790405,14.440581 1882.618896,13.788533   C1931.120361,11.114890 1979.643799,12.282002 2028.158447,11.974174   C2030.146362,11.961561 2032.383057,12.278419 2034.079224,11.507534   C2044.544556,6.751177 2055.605713,8.050528 2066.517578,8.021143   C2095.138672,7.944072 2123.760498,8.011184 2152.381836,7.978660   C2157.286621,7.973086 2162.549072,8.818427 2165.847168,2.747480   C2234.041748,2.000000 2302.083740,2.000000 2371.278320,2.515839   C2372.960693,4.014501 2373.490479,4.997324 2373.393555,6.303229   C2367.756104,12.594476 2361.524170,15.147968 2353.655518,14.099818   C2350.569824,13.688801 2346.767822,13.222320 2345.983398,17.981956  z"
   id="path10" />
<path
   fill="#ECECEC"
   opacity="1.000000"
   stroke="none"
   d=" M2402.000000,211.062683   C2400.104980,210.064789 2397.988037,208.296585 2396.373291,206.150482   C2394.520508,203.687927 2393.112793,200.890381 2390.840332,198.073364   C2390.146729,161.886307 2390.125000,125.864235 2390.815430,89.002029   C2395.018555,90.107925 2398.509277,92.053940 2402.000000,93.999977   C2402.000000,132.708450 2402.000000,171.416916 2402.000000,211.062683  z"
   id="path11" />
<path
   fill="#F2F2F2"
   opacity="1.000000"
   stroke="none"
   d=" M2402.000000,93.062660   C2398.509277,92.053940 2395.018555,90.107925 2390.864258,88.063850   C2390.144775,71.794281 2389.576172,55.602905 2390.201904,39.457794   C2390.667969,27.422079 2386.204102,17.730473 2378.233398,7.872211   C2376.201660,6.706408 2375.110840,6.343331 2374.020020,5.980201   C2373.490479,4.997324 2372.960693,4.014501 2372.215576,2.515839   C2381.927734,2.000000 2391.855469,2.000000 2402.000000,2.000000   C2402.000000,32.041443 2402.000000,62.083405 2402.000000,93.062660  z"
   id="path12" />


<path
   fill="#DADADA"
   opacity="1.000000"
   stroke="none"
   d=" M2230.869629,17.991262   C2231.568115,16.672689 2233.146484,14.221760 2234.725342,14.221460   C2252.747314,14.218036 2270.769287,14.588108 2289.395508,15.433729   C2287.388916,20.973108 2283.168945,19.906128 2278.756104,19.407091   C2274.290771,18.902136 2269.726318,19.275597 2265.205322,19.259485   C2257.645996,19.232548 2250.083252,19.319263 2242.528320,19.121517   C2238.928223,19.027285 2235.342041,18.389009 2230.869629,17.991262  z"
   id="path15" />
<path
   fill="#DADADA"
   opacity="1.000000"
   stroke="none"
   d=" M2302.859375,17.987776   C2303.539062,16.669941 2305.084473,14.248594 2306.655518,14.231913   C2316.031250,14.132366 2325.413086,14.587649 2335.396484,15.430643   C2329.985596,22.155685 2322.524414,19.892799 2315.429688,19.435963   C2311.517578,19.184057 2307.633789,18.490078 2302.859375,17.987776  z"
   id="path16" />
<path
   fill="#DADADA"
   opacity="1.000000"
   stroke="none"
   d=" M2373.393555,6.303284   C2375.110840,6.343331 2376.201660,6.706408 2377.623047,7.553743   C2369.802002,17.134846 2359.303467,19.121397 2346.880859,17.989122   C2346.767822,13.222320 2350.569824,13.688801 2353.655518,14.099818   C2361.524170,15.147968 2367.756104,12.594476 2373.393555,6.303284  z"
   id="path17" />
<path
   fill="#D4D4D4"
   opacity="1.000000"
   stroke="none"
   d=" M104.001663,15.974287   C104.889946,15.976887 105.778236,15.979487 107.767929,16.547310   C113.519966,19.756996 116.122696,23.215181 116.110680,29.102823   C116.033951,66.696587 117.536392,104.306519 117.618576,141.857941   C118.296997,451.847168 118.003464,761.838501 118.003853,1071.829224   C118.003990,1179.825928 118.490501,1287.825562 117.864899,1395.818604   C117.239738,1503.734741 119.174812,1611.640015 116.381004,1719.577393   C113.450928,1832.779541 117.489609,1946.060059 114.381973,2059.325684   C112.371529,2132.601807 114.467903,2205.981445 113.871902,2279.307861   C113.273804,2352.891602 115.519081,2426.468750 112.303268,2500.073242   C109.673927,2560.254150 112.559967,2620.538330 110.457611,2680.828369   C107.603455,2762.678711 112.171997,2844.671143 108.052765,2926.565430   C106.817299,2951.127686 107.911789,2975.703613 106.527077,3000.346924   C104.529335,3035.900391 105.903389,3071.650391 106.166138,3107.313965   C106.193565,3111.037109 107.776741,3115.141846 109.755623,3118.388428   C117.959396,3131.846924 123.872681,3145.940430 123.988503,3161.988770   C115.069901,3161.995117 106.149109,3162.116943 97.233864,3161.947021   C93.996780,3161.885498 90.772957,3161.126953 86.782394,3160.346191   C86.034195,2116.310303 86.046623,1072.614868 86.062874,28.919407   C86.062920,25.920719 86.118973,22.922031 87.053207,18.971996   C93.305580,17.338530 98.653625,16.656408 104.001663,15.974287  z"
   id="path18" />
<path
   fill="#ECECEC"
   opacity="1.000000"
   stroke="none"
   d=" M21.998020,16.016497   C22.938032,14.106987 23.878042,12.197477 25.309341,9.289974   C31.827208,15.536826 32.681084,22.747616 33.908928,29.701412   C34.365555,32.287521 33.996910,35.020153 33.996910,37.685970   C33.996845,921.746948 33.996067,1805.807861 33.995323,2689.868896   C29.469198,2835.059082 33.203533,2980.287109 32.082470,3125.493408   C32.026539,3132.738281 33.298035,3139.987305 33.780472,3147.245850   C33.905956,3149.134033 33.385651,3151.064941 33.173054,3152.881592   C24.167065,3153.377930 21.270773,3150.728760 18.579525,3138.169189   C19.427141,3135.194580 19.938684,3133.580078 19.969259,3131.956299   C20.720619,3092.051025 18.248106,3052.091553 22.005341,3012.236328   C22.007158,2739.759766 21.962635,2467.283203 22.097130,2194.806641   C22.108110,2172.560547 23.918512,2150.314941 23.921766,2128.069092   C24.024031,1429.291260 24.010000,730.513550 23.922647,31.735786   C23.921993,26.495945 22.667217,21.256256 21.998020,16.016497  z"
   id="path19" />
<path
   fill="#E1E1E1"
   opacity="1.000000"
   stroke="none"
   d=" M21.258572,16.167639   C22.667217,21.256256 23.921993,26.495945 23.922647,31.735786   C24.010000,730.513550 24.024031,1429.291260 23.921766,2128.069092   C23.918512,2150.314941 22.108110,2172.560547 22.097130,2194.806641   C21.962635,2467.283203 22.007158,2739.759766 22.005341,3012.236328   C18.248106,3052.091553 20.720619,3092.051025 19.969259,3131.956299   C19.938684,3133.580078 19.427141,3135.194580 18.564709,3137.423584   C17.328102,3134.568115 16.109121,3131.105469 16.091759,3127.636719   C15.932014,3095.721680 15.980318,3063.805420 15.975231,3030.014648   C15.969257,2936.753174 15.956100,2845.366699 15.942942,2753.980469   C15.951132,2681.283936 15.959323,2608.587158 15.976017,2534.199951   C15.973800,2531.000000 15.963080,2529.490967 15.952360,2527.981689   C15.956684,2523.909180 15.961008,2519.836670 15.974230,2514.136719   C15.971786,2511.000000 15.960445,2509.490479 15.949104,2507.980957   C15.954114,2503.908203 15.959125,2499.835449 15.973871,2493.951172   C15.972108,2471.420654 15.960606,2450.701904 15.949104,2429.983154   C15.955786,2022.133789 15.963775,1614.284424 15.968764,1206.435059   C15.973538,816.245850 15.969460,426.056580 16.024469,35.867363   C16.025425,29.085804 14.528289,21.794950 21.258572,16.167639  z"
   id="path20" />
<path
   fill="#ECECEC"
   opacity="1.000000"
   stroke="none"
   d=" M15.166482,2754.190918   C15.956100,2845.366699 15.969257,2936.753174 15.965685,3029.078369   C9.689273,3025.177490 10.210302,3018.266602 10.520354,3011.552490   C10.747941,3006.624268 11.926036,3001.720215 11.932000,2996.804688   C12.025591,2919.680420 11.969236,2842.556152 12.084019,2765.432129   C12.089531,2761.728516 10.294706,2757.362793 15.166482,2754.190918  z"
   id="path21" />
<path
   fill="#ECECEC"
   opacity="1.000000"
   stroke="none"
   d=" M15.172013,2430.192627   C15.960606,2450.701904 15.972108,2471.420654 15.965994,2493.078125   C14.645729,2492.404785 12.230042,2490.805420 12.210670,2489.177734   C11.989647,2470.605225 12.098938,2452.028076 12.274709,2433.453613   C12.284397,2432.429688 13.656819,2431.418945 15.172013,2430.192627  z"
   id="path22" />
<path
   fill="#DADADA"
   opacity="1.000000"
   stroke="none"
   d=" M103.422379,15.419161   C98.653625,16.656408 93.305580,17.338530 87.108200,18.040138   C86.210167,17.172422 86.161491,16.285221 86.152374,14.733978   C91.742317,14.334635 97.292709,14.599334 103.422379,15.419161  z"
   id="path23" />
<path
   fill="#ECECEC"
   opacity="1.000000"
   stroke="none"
   d=" M15.297939,2508.099365   C15.960445,2509.490479 15.971786,2511.000000 15.966421,2513.264160   C11.728830,2512.935547 10.770479,2511.119629 15.297939,2508.099365  z"
   id="path24" />
<path
   fill="#ECECEC"
   opacity="1.000000"
   stroke="none"
   d=" M15.300602,2528.099365   C15.963080,2529.490967 15.973800,2531.000000 15.968441,2533.263672   C11.726528,2532.936523 10.770954,2531.119873 15.300602,2528.099365  z"
   id="path25" />
<path
   fill="#DADADA"
   opacity="1.000000"
   stroke="none"
   d=" M124.653717,3161.612793   C123.872681,3145.940430 117.959396,3131.846924 109.755623,3118.388428   C107.776741,3115.141846 106.193565,3111.037109 106.166138,3107.313965   C105.903389,3071.650391 104.529335,3035.900391 106.527077,3000.346924   C107.911789,2975.703613 106.817299,2951.127686 108.052765,2926.565430   C112.171997,2844.671143 107.603455,2762.678711 110.457611,2680.828369   C112.559967,2620.538330 109.673927,2560.254150 112.303268,2500.073242   C115.519081,2426.468750 113.273804,2352.891602 113.871902,2279.307861   C114.467903,2205.981445 112.371529,2132.601807 114.381973,2059.325684   C117.489609,1946.060059 113.450928,1832.779541 116.381004,1719.577393   C119.174812,1611.640015 117.239738,1503.734741 117.864899,1395.818604   C118.490501,1287.825562 118.003990,1179.825928 118.003853,1071.829224   C118.003464,761.838501 118.296997,451.847168 117.618576,141.857941   C117.536392,104.306519 116.033951,66.696587 116.110680,29.102823   C116.122696,23.215181 113.519966,19.756996 108.434143,16.547306   C115.768265,13.792463 123.290070,17.993996 123.933662,25.009594   C124.176262,27.654097 124.001404,30.337738 124.001442,33.003536   C124.003090,151.635910 122.230247,270.302368 124.511215,388.890869   C126.708595,503.133301 125.239029,617.341064 125.861214,731.560974   C126.485634,846.191162 125.998512,960.827271 125.998466,1075.460815   C125.998413,1189.761108 127.660080,1304.091187 125.601852,1418.354492   C122.643806,1582.572266 124.751228,1746.772827 124.135071,1910.978271   C123.519882,2074.928711 125.444725,2238.900879 123.397156,2402.827881   C122.349083,2486.735840 122.733932,2570.626709 122.132866,2654.521973   C121.533646,2738.160156 123.677208,2821.850342 121.461029,2905.434326   C119.730515,2970.700928 121.023178,3035.919434 120.164505,3101.152100   C120.052544,3109.657715 121.994095,3118.220703 123.312889,3126.706299   C124.633453,3135.203125 126.712524,3143.594971 127.725258,3152.119873   C128.070084,3155.022705 126.185059,3158.190430 124.653717,3161.612793  z"
   id="path26" />
</svg>
