<svg version="1.1" xmlns="http://www.w3.org/2000/svg" xmlns:xlink="http://www.w3.org/1999/xlink" 
     x="0px" y="0px" width="2400px" height="3192px" viewBox="0 0 2400 3192" xml:space="preserve">
  
  <!-- OPTION A: Single filled silhouette (perfect for CSS masking) -->
  <path fill="black" d="
    M1014,2 C1397,2 1781,2 2165,3 
    c-2,6-7,5-12,5 -29,0-58-1-86,0 -11,0-22-1-33,4 -2,1-4,1-6,1 -49,0-98-1-147,2 
    -12,1-24-1-36-1 -46,0-93,1-139,0 -1,0-2,0-3,0 -2,3-3,7-5,9 -8,1-15,1-22-4 
    -3-1-7-1-10-1 -49,2-98-2-147,0 -66,3-132,0-198,3 -44,2-88,0-132,0 -18,0-36,1-54,1 
    -35,1-70,1-105,1 -15,0-15,0-15,15 0,103 0,205 0,308 0,3 0,6 0,9 -1,5-4,9-9,11 
    -15,7-30,14-45,21 -7,3-11,8-11,16 0,2 0,4 0,6 0,338 0,676 0,1014 0,2 0,4 0,6 
    0,3 3,8 9,10 14,6 28,14 42,20 12,4 14,7 14,20 0,116 0,231 0,347 0,3-1,6 0,9 
    0,5 3,9 8,10 10,2 21,4 31,6 5,1 11,2 16,3 6,1 8,5 9,11 0,3 0,6 0,9 0,95 0,190 0,285 
    0,3 0,6 0,9 0,5 2,10 2,16 0,8 1,16 1,25 0,8 2,11 10,11 15,1 30,2 46,2 6,0 7,1 8,7 
    0,2 0,5 0,7 0,47 0,94 0,141 0,41 0,83 0,124 0,9 2,12 11,13 12,1 24,2 37,2 13,0 16,2 15,16 
    0,2 0,3 0,5 0,76 0,152 0,228 0,3 0,6 0,9 1,6 3,10 9,13 9,1 18,2 26,2 8,0 17,0 25,0 
    9,0 11,2 11,11 0,15 0,30 0,46 0,48 0,96 0,144 0,14 1,15 15,15 12,0 23,0 35-1 
    10-1 14,2 14,12 0,30 0,60 0,90 0,9-2,12-11,12 -14,0-28,0-41,0 -4,0-7,0-11,0 
    -4,1-9,4-11,9 -5,14-10,28-15,42 -4,10-11,11-20,11 -8,0-17,0-25,0 -9,0-18,2-27,0 
    -10-2-20-4-31-4 -4,0-8,1-12,2 -6,2-11,6-14,12 -2,3-5,5-9,5 -13,0-26,0-39,0 
    -4,0-7,0-11,0 -4,1-8,4-10,8 -2,4-5,8-8,11 -7,7-13,8-21,8 -12,0-25,0-37,0 
    -4,0-7,0-11-1 -4-1-8-4-10-8 -2-4-5-8-8-11 -8-8-17-11-27-11 -13,0-26,0-39,0 
    -7,0-13-1-19-4 -4-2-9-4-13-4 -4,0-8,0-12,0 -13,0-25,0-38,0 -4,0-7,0-11,0 
    -4,1-8,4-10,8 -2,4-5,8-8,11 -6,7-12,8-21,8 -12,0-25,0-37,0 -4,0-7,0-11-1 
    -4-1-8-4-10-8 -3-4-6-8-9-11 -8-8-18-11-28-11 -7,0-13,1-19,4 -3,2-7,3-10,3 
    -4,0-8,0-12,0 -13,0-25,0-38,0 -4,0-8,0-12-1 -4-1-8-4-10-8 -2-4-5-8-8-11 
    -6-7-12-8-20-8 -7,0-13,1-19,4 -4,2-9,4-13,4 -4,0-8,0-12,0 -13,0-25,0-38,0 
    -4,0-7,0-11-1 -4-1-8-4-10-8 -2-4-5-8-8-11 -6-7-12-8-20-8 -13,0-26,0-39,0 
    -4,0-8,0-12-1 -4-1-8-4-10-8 -2-4-5-8-8-11 -7-7-13-8-22-8 -7,0-13,1-19,4 
    -4,2-9,4-13,4 -4,0-8,0-12,0 -13,0-25,0-38,0 -4,0-8,0-12-1 -4-1-8-4-10-8 
    -2-4-5-8-8-11 -6-7-12-8-20-8 -7,0-13,1-19,4 -3,2-7,3-10,3 -4,0-8,0-12,0 
    -13,0-25,0-38,0 -4,0-8,0-12-1 -4-1-8-4-10-8 -2-4-5-8-8-11 -7-7-13-8-22-8 
    -7,0-13,1-19,4 -4,2-9,4-13,4 -4,0-8,0-12,0 -13,0-25,0-38,0 -4,0-8,0-12-1 
    -4-1-8-4-10-8 -2-4-5-8-8-11 -6-7-12-8-20-8 -7,0-13,1-19,4 -4,2-9,4-13,4 
    -4,0-8,0-12,0 -13,0-25,0-38,0 -4,0-8,0-12-1 -4-1-8-4-10-8 -2-4-5-8-8-11 
    -7-7-13-8-22-8 -7,0-13,1-19,4 -4,2-9,4-13,4 -4,0-8,0-12,0 -13,0-25,0-38,0 
    -4,0-8,0-12-1 -4-1-8-4-10-8 -2-4-5-8-8-11 -6-7-12-8-20-8 -7,0-13,1-19,4 
    -3,2-7,3-10,3 -4,0-8,0-12,0 -13,0-25,0-38,0 -4,0-8,0-12-1 -4-1-8-4-10-8 
    -2-4-5-8-8-11 -7-7-13-8-22-8 -7,0-13,1-19,4 -4,2-9,4-13,4 -4,0-8,0-12,0 
    -13,0-25,0-38,0 -4,0-8,0-12-1 -4-1-8-4-10-8 -2-4-5, z"/>
</svg>